<svg width="602" height="560" viewBox="0 0 602 560" fill="none" xmlns="http://www.w3.org/2000/svg">
<path d="M582.264 529.493H16.6158C16.4502 529.493 16.2913 529.427 16.1742 529.31C16.057 529.192 15.9912 529.034 15.9912 528.868C15.9912 528.702 16.057 528.543 16.1742 528.426C16.2913 528.309 16.4502 528.243 16.6158 528.243H582.264C582.43 528.243 582.588 528.309 582.706 528.426C582.823 528.543 582.889 528.702 582.889 528.868C582.889 529.034 582.823 529.192 582.706 529.31C582.588 529.427 582.43 529.493 582.264 529.493Z" fill="#121214"/>
<path d="M225.008 169.688C222.636 169.686 220.317 168.991 218.334 167.688C216.352 166.386 214.792 164.534 213.848 162.358C212.903 160.183 212.615 157.778 213.017 155.441C213.419 153.103 214.495 150.934 216.113 149.2L320.94 37.1771L250.243 42.1117L248.869 22.8853H249.494L358.069 15.3896L357.719 124.839H338.443L338.73 53.7925L233.878 165.84C232.739 167.052 231.365 168.018 229.84 168.68C228.315 169.341 226.671 169.685 225.008 169.688ZM324.026 35.7154L217.025 150.062C215.047 152.177 213.99 154.992 214.088 157.887C214.185 160.781 215.428 163.519 217.544 165.497C219.659 167.475 222.474 168.531 225.368 168.434C228.263 168.337 231 167.094 232.978 164.978L339.992 50.6068L339.742 123.452H356.52L356.869 16.589L250.243 24.0471L251.405 40.7875L324.026 35.7154Z" fill="#121214"/>
<path d="M497.95 364.863C496.678 364.866 495.433 364.497 494.368 363.801C493.304 363.105 492.467 362.112 491.96 360.945C491.454 359.778 491.301 358.488 491.519 357.235C491.738 355.982 492.319 354.82 493.191 353.894L546.197 297.314L510.568 299.813L509.856 289.381L566.186 285.446L565.999 341.951H555.555L555.679 306.234L502.685 362.864C502.072 363.5 501.336 364.005 500.523 364.348C499.709 364.692 498.834 364.867 497.95 364.863ZM549.246 295.803L494.103 354.781C493.154 355.795 492.642 357.141 492.678 358.529C492.714 359.571 493.057 360.579 493.665 361.426C494.273 362.273 495.119 362.92 496.095 363.287C497.071 363.653 498.134 363.722 499.149 363.484C500.164 363.247 501.086 362.713 501.798 361.952L556.954 303.011L556.829 340.664H564.787L564.937 286.783L511.155 290.531L511.692 298.464L549.246 295.803Z" fill="#121214"/>
<path d="M145.767 151.411L125.341 132.41L164.243 91.6207L148.078 85.7616L218.037 54.3547L191.802 126.338L184.781 110.61L145.767 151.411ZM127.115 132.36L145.717 149.65L185.056 108.424L191.565 123.028L215.789 56.7284L151.426 85.6367L166.417 91.096L127.115 132.36Z" fill="#121214"/>
<path d="M100.58 516.238L80.2168 497.286L119.119 456.497L102.954 450.638L172.913 419.231L146.503 491.165L139.483 475.436L100.58 516.238ZM81.9408 497.186L100.53 514.476L139.87 473.25L146.391 487.867L170.602 421.555L106.214 450.463L121.281 455.923L81.9408 497.186Z" fill="#121214"/>
<path d="M157.884 307.721H34.4058V291.48H157.884C168.424 291.466 178.847 289.283 188.506 285.066C198.165 280.849 206.852 274.689 214.027 266.969L249.007 229.229L213.477 247.431L208.38 237.524L208.942 237.236L292.319 194.461L255.703 281.398L245.434 277.076L260.95 240.235L225.97 277.975C217.271 287.341 206.736 294.815 195.022 299.933C183.309 305.05 170.667 307.701 157.884 307.721ZM35.655 306.471H157.884C170.487 306.455 182.952 303.845 194.502 298.802C206.052 293.76 216.44 286.394 225.021 277.163L264.848 234.226L247.07 276.439L255.041 279.799L289.833 197.185L210.067 238.098L214.014 245.794L254.778 224.944L214.951 267.881C207.657 275.727 198.827 281.987 189.009 286.272C179.191 290.558 168.597 292.777 157.884 292.792H35.655V306.471Z" fill="#121214"/>
<path d="M440.071 214.312L433.763 210.377L425.467 218.785L431.451 225.793L440.071 214.312Z" fill="#F9F2F9"/>
<path d="M431.451 226.418C431.361 226.415 431.272 226.393 431.19 226.355C431.109 226.316 431.036 226.261 430.976 226.193L425.017 219.197C424.913 219.08 424.855 218.929 424.855 218.772C424.855 218.616 424.913 218.464 425.017 218.348L433.325 209.94C433.426 209.842 433.557 209.78 433.697 209.764C433.837 209.748 433.979 209.779 434.099 209.852L440.408 213.788C440.481 213.833 440.543 213.893 440.59 213.964C440.638 214.035 440.669 214.116 440.683 214.2C440.703 214.284 440.704 214.372 440.684 214.457C440.665 214.541 440.626 214.62 440.571 214.687L431.951 226.168C431.895 226.242 431.823 226.302 431.741 226.345C431.659 226.389 431.569 226.413 431.476 226.418H431.451ZM426.267 218.81L431.376 224.794L439.109 214.487L433.862 211.202L426.267 218.81Z" fill="#121214"/>
<path d="M468.904 521.023C468.904 521.023 478.699 529.355 480.523 530.642C482.346 531.929 495.514 537.538 495.514 537.538C495.682 538.083 495.672 538.668 495.485 539.207C495.299 539.746 494.946 540.211 494.477 540.536C492.79 541.985 476.8 543.347 472.077 543.035C467.355 542.723 460.122 538.725 458.91 538.038C457.698 537.351 452.314 531.117 452.314 531.117L449.69 533.39L437.847 527.506C437.847 527.506 438.872 520.41 440.883 517.375C442.752 514.943 444.937 512.771 447.379 510.916L468.904 521.023Z" fill="#121214"/>
<path d="M473.739 543.697C473.052 543.697 472.49 543.697 472.027 543.697C466.668 543.285 458.66 538.612 458.585 538.575C456.318 536.532 454.197 534.332 452.239 531.991L450.078 533.865C449.985 533.946 449.87 533.997 449.747 534.013C449.625 534.028 449.501 534.007 449.391 533.953L437.56 528.068C437.442 528.009 437.347 527.915 437.286 527.798C437.226 527.682 437.203 527.549 437.223 527.419C437.223 527.119 438.284 520.148 440.346 517.025C442.248 514.532 444.48 512.309 446.979 510.416C447.07 510.344 447.178 510.298 447.293 510.285C447.408 510.271 447.525 510.291 447.629 510.341L469.117 520.548C469.169 520.565 469.216 520.595 469.254 520.635C469.354 520.71 479.061 528.968 480.835 530.217C482.234 531.192 491.191 535.114 495.739 537.051C495.884 537.12 496 537.24 496.064 537.388C496.301 538.063 496.307 538.797 496.08 539.476C495.854 540.154 495.409 540.738 494.814 541.136C493.128 542.585 479.598 543.697 473.739 543.697ZM452.301 530.442C452.391 530.44 452.481 530.457 452.563 530.494C452.645 530.531 452.718 530.586 452.776 530.654C454.779 533.054 456.932 535.324 459.222 537.451C460.834 538.412 467.717 542.06 472.115 542.448C477.112 542.847 492.641 541.361 494.052 540.149C494.38 539.923 494.64 539.611 494.803 539.248C494.966 538.884 495.026 538.483 494.977 538.088C493.028 537.251 481.847 532.453 480.123 531.229C478.399 530.005 469.429 522.409 468.504 521.635L447.442 511.64C445.168 513.39 443.135 515.431 441.395 517.712C439.771 520.211 438.784 525.57 438.522 527.144L449.578 532.653L451.889 530.642C451.949 530.58 452.021 530.53 452.1 530.495C452.179 530.461 452.265 530.443 452.351 530.442H452.301Z" fill="#121214"/>
<path d="M292.831 526.02L285.773 524.496C285.773 524.496 274.867 517.587 272.68 516.912C270.494 516.238 267.396 516.975 265.26 521.385L262.286 528.768L264.148 530.829C264.148 530.829 258.801 533.44 257.901 535.639C257.002 537.838 250.868 544.009 249.494 552.105C248.12 560.2 250.593 558.513 251.543 558.076C252.492 557.639 267.458 547.12 269.745 545.583C272.031 544.047 287.147 541.223 287.147 541.223C287.147 541.223 289.733 528.168 292.831 526.02Z" fill="#121214"/>
<path d="M250.268 559.088C249.949 559.093 249.637 558.992 249.381 558.801C248.707 558.301 248.045 557.064 248.907 551.942C249.906 546.008 253.354 541.198 255.628 538.013C256.278 537.184 256.851 536.298 257.339 535.364C258.101 533.453 261.562 531.442 263.148 530.605L261.824 529.143C261.749 529.055 261.699 528.948 261.679 528.833C261.66 528.719 261.671 528.602 261.712 528.493L264.685 521.098C266.971 516.363 270.407 515.501 272.868 516.263C275.017 516.937 284.873 523.134 286.01 523.858L292.956 525.358C293.077 525.381 293.188 525.439 293.275 525.526C293.362 525.613 293.421 525.724 293.443 525.845C293.467 525.964 293.456 526.087 293.411 526.2C293.367 526.313 293.292 526.411 293.194 526.482C290.82 528.168 288.484 537.725 287.784 541.336C287.762 541.458 287.704 541.571 287.617 541.66C287.53 541.749 287.419 541.81 287.297 541.836C283.112 542.635 271.893 544.946 270.107 546.108C269.207 546.695 266.234 548.757 263.098 550.93C256.677 555.378 252.417 558.326 251.855 558.588L251.68 558.676C251.247 558.919 250.764 559.06 250.268 559.088ZM263.011 528.593L264.623 530.367C264.687 530.44 264.733 530.525 264.759 530.619C264.785 530.712 264.79 530.809 264.772 530.904C264.755 531.001 264.714 531.091 264.653 531.167C264.592 531.244 264.513 531.304 264.423 531.342C262.999 532.041 259.151 534.202 258.501 535.827C257.98 536.857 257.356 537.832 256.64 538.737C254.428 541.836 251.093 546.508 250.143 552.155C249.331 556.939 249.994 557.701 250.143 557.801C250.293 557.901 250.843 557.689 251.118 557.551L251.33 557.452C251.892 557.189 257.964 552.979 262.399 549.956C265.684 547.67 268.533 545.708 269.432 545.121C271.606 543.697 283.886 541.273 286.66 540.736C287.122 538.475 289.046 529.68 291.594 526.394L285.66 525.145C285.586 525.134 285.514 525.108 285.448 525.07C282.437 523.159 274.205 518.087 272.506 517.575C271.556 517.275 268.258 516.713 265.834 521.722L263.011 528.593Z" fill="#121214"/>
<path d="M353.546 412.023C353.546 412.023 354.383 434.135 358.831 463.918C363.278 493.701 366.126 507.643 366.126 507.643C366.126 507.643 362.591 505.969 362.454 508.055C362.36 509.219 362.496 510.391 362.853 511.503L292.831 526.02C292.831 526.02 288.796 528.518 288.209 535.477C287.622 542.435 287.909 543.56 287.909 543.56C287.909 543.56 355.07 543.56 372.86 542.91C390.65 542.26 401.593 539.899 402.843 538.45C404.092 537.001 405.591 533.24 405.341 532.566C405.091 531.891 410.988 477.835 411.125 471.126C411.263 464.418 415.798 448.527 415.798 448.527C415.798 448.527 469.817 444.055 476.275 443.98L479.761 444.504L447.442 510.916C447.442 510.916 452.864 518.037 460.36 520.435C467.855 522.834 471.603 522.434 471.603 522.434C471.977 520.962 472.526 519.54 473.24 518.199C473.902 517.475 473.577 510.803 473.502 509.454C473.427 508.105 514.716 451.987 522.024 441.069C529.332 430.15 530.119 422.442 527.908 419.544C525.697 416.645 469.279 400.242 456.449 397.394C443.619 394.546 427.716 395.782 427.716 395.782C427.716 395.782 412.612 407.088 398.783 412.148C384.953 417.208 353.546 412.023 353.546 412.023Z" fill="#681993"/>
<path d="M287.909 544.134C287.771 544.138 287.637 544.094 287.527 544.01C287.418 543.925 287.341 543.806 287.31 543.672C287.31 543.534 287.01 542.223 287.584 535.377C288.197 528.193 292.319 525.545 292.494 525.382C292.56 525.345 292.632 525.319 292.706 525.308L362.066 511.041C361.846 510.053 361.767 509.04 361.829 508.03C361.831 507.754 361.904 507.484 362.042 507.245C362.18 507.006 362.378 506.807 362.616 506.668C363.477 506.318 364.441 506.318 365.302 506.668C364.552 502.796 361.917 488.791 358.219 463.968C353.821 434.485 352.934 412.223 352.922 411.998C352.921 411.906 352.939 411.816 352.976 411.732C353.012 411.648 353.066 411.572 353.134 411.511C353.202 411.447 353.283 411.4 353.372 411.374C353.461 411.348 353.555 411.344 353.646 411.361C353.959 411.361 385.053 416.445 398.62 411.511C412.187 406.576 427.279 395.27 427.429 395.183C427.525 395.116 427.637 395.077 427.753 395.07C427.916 395.07 443.869 393.821 456.637 396.682C467.793 399.18 525.922 415.771 528.458 419.069C530.669 421.955 530.457 429.513 522.599 441.306C519.413 446.078 509.981 459.121 499.987 472.925C488.219 489.166 474.889 507.58 474.102 509.392C474.489 517.612 473.939 518.224 473.664 518.524C473.004 519.782 472.5 521.116 472.165 522.497C472.129 522.617 472.059 522.724 471.964 522.806C471.869 522.888 471.752 522.941 471.628 522.959C471.478 522.959 467.743 523.346 460.197 520.935C452.652 518.524 447.192 511.491 446.967 511.191C446.909 511.092 446.878 510.98 446.878 510.866C446.878 510.752 446.909 510.639 446.967 510.541L478.911 444.891L476.263 444.492C470.304 444.579 421.507 448.589 416.373 449.014C415.66 451.513 411.963 465.105 411.838 471.039C411.763 474.787 409.901 493.151 408.252 509.317C407.103 520.648 406.016 531.354 406.041 532.353C406.316 533.603 404.667 537.351 403.405 538.775C401.756 540.599 389.913 542.835 372.948 543.435C355.283 544.109 288.584 544.134 287.909 544.134ZM293.081 526.557C292.519 526.957 289.333 529.505 288.834 535.477C288.573 537.937 288.456 540.411 288.484 542.885C295.043 542.885 356.132 542.822 372.785 542.235C391.337 541.573 401.356 539.1 402.368 537.988C403.56 536.438 404.365 534.626 404.717 532.703C404.592 532.378 404.717 530.317 406.903 509.242C408.465 493.901 410.401 474.799 410.476 471.064C410.613 464.368 414.986 448.952 415.173 448.302C415.207 448.179 415.278 448.07 415.376 447.989C415.475 447.909 415.596 447.861 415.723 447.852C417.934 447.665 469.829 443.38 476.238 443.305L479.823 443.83C479.921 443.842 480.014 443.878 480.095 443.934C480.176 443.991 480.241 444.066 480.286 444.154C480.329 444.242 480.351 444.338 480.351 444.436C480.351 444.533 480.329 444.629 480.286 444.717L448.154 510.778C449.266 512.128 454.163 517.749 460.522 519.798C463.9 521 467.445 521.67 471.028 521.785C471.386 520.363 471.945 519 472.69 517.737C472.69 517.674 473.152 516.675 472.79 509.404C472.79 508.58 477.4 501.984 498.925 472.238C508.919 458.496 518.339 445.416 521.512 440.669C528.52 430.138 529.532 422.642 527.408 419.881C525.285 417.12 469.492 400.879 456.312 397.956C444.444 395.333 429.765 396.232 427.978 396.345C426.367 397.594 412.025 407.963 398.995 412.735C386.202 417.407 359.193 413.535 354.208 412.735C354.396 416.883 355.52 437.446 359.455 463.806C363.84 493.226 366.714 507.418 366.739 507.53C366.764 507.645 366.756 507.764 366.716 507.875C366.676 507.985 366.606 508.082 366.514 508.155C366.422 508.225 366.314 508.269 366.199 508.282C366.085 508.295 365.969 508.277 365.864 508.23C365.09 507.855 363.728 507.455 363.241 507.743C363.241 507.743 363.103 507.83 363.078 508.105C362.998 509.18 363.121 510.261 363.441 511.291C363.473 511.376 363.487 511.467 363.481 511.558C363.475 511.649 363.448 511.737 363.404 511.817C363.36 511.897 363.299 511.966 363.226 512.019C363.152 512.073 363.068 512.11 362.978 512.128L293.081 526.557Z" fill="#121214"/>
<path d="M417.085 447.652C416.998 447.67 416.909 447.67 416.822 447.652C416.747 447.618 416.68 447.568 416.624 447.507C416.569 447.446 416.525 447.374 416.498 447.297C416.47 447.219 416.457 447.136 416.462 447.053C416.466 446.971 416.487 446.89 416.523 446.815C420.67 438.133 425.742 427.676 426.392 427.189C426.526 427.09 426.694 427.048 426.859 427.072C427.025 427.097 427.173 427.186 427.273 427.32C427.372 427.455 427.414 427.623 427.389 427.788C427.365 427.953 427.276 428.102 427.141 428.201C426.554 428.913 420.995 440.332 417.659 447.353C417.598 447.449 417.513 447.527 417.412 447.579C417.311 447.632 417.198 447.657 417.085 447.652Z" fill="#121214"/>
<path d="M406.466 442.63C406.387 442.631 406.309 442.615 406.236 442.585C406.163 442.555 406.097 442.511 406.041 442.455C405.981 442.399 405.933 442.332 405.901 442.256C405.868 442.181 405.852 442.1 405.852 442.018C405.852 441.936 405.868 441.855 405.901 441.78C405.933 441.705 405.981 441.637 406.041 441.581L409.626 437.696C409.682 437.635 409.749 437.586 409.824 437.551C409.899 437.516 409.98 437.497 410.062 437.493C410.144 437.49 410.227 437.503 410.304 437.531C410.381 437.559 410.453 437.602 410.513 437.658C410.574 437.714 410.623 437.781 410.658 437.856C410.693 437.931 410.712 438.012 410.716 438.094C410.719 438.176 410.706 438.259 410.678 438.336C410.65 438.413 410.607 438.485 410.551 438.545L406.953 442.43C406.89 442.496 406.814 442.548 406.73 442.582C406.646 442.616 406.556 442.633 406.466 442.63Z" fill="#121214"/>
<path d="M413.299 435.197C413.143 435.193 412.994 435.136 412.875 435.035C412.759 434.916 412.695 434.757 412.695 434.591C412.695 434.426 412.759 434.267 412.875 434.148C419.696 426.652 426.117 419.456 426.192 419.381C426.242 419.308 426.307 419.246 426.383 419.2C426.459 419.153 426.544 419.124 426.632 419.113C426.72 419.102 426.81 419.11 426.894 419.137C426.979 419.163 427.057 419.208 427.124 419.267C427.19 419.326 427.243 419.399 427.279 419.48C427.315 419.561 427.333 419.649 427.333 419.738C427.332 419.827 427.312 419.915 427.275 419.995C427.238 420.076 427.184 420.148 427.116 420.206C427.116 420.281 420.633 427.502 413.799 434.985C413.737 435.055 413.66 435.111 413.573 435.148C413.487 435.185 413.393 435.202 413.299 435.197Z" fill="#121214"/>
<path d="M361.779 439.72C361.652 439.716 361.528 439.675 361.423 439.602C361.319 439.529 361.239 439.426 361.192 439.307C361.136 439.152 361.144 438.98 361.214 438.83C361.284 438.68 361.411 438.564 361.567 438.508C361.692 438.508 374.422 433.736 377.183 431.387C377.33 431.257 377.449 431.098 377.531 430.919C377.612 430.74 377.656 430.547 377.657 430.35C377.832 427.951 374.472 423.566 373.16 422.08C373.106 422.019 373.064 421.947 373.038 421.87C373.012 421.793 373.001 421.711 373.007 421.629C373.013 421.548 373.035 421.468 373.072 421.396C373.109 421.323 373.16 421.258 373.223 421.205C373.339 421.091 373.496 421.027 373.66 421.027C373.823 421.027 373.98 421.091 374.097 421.205C374.309 421.443 379.157 426.977 378.907 430.388C378.893 430.75 378.806 431.105 378.649 431.432C378.492 431.759 378.269 432.05 377.995 432.286C375.059 434.785 362.529 439.432 362.004 439.62C361.939 439.672 361.861 439.706 361.779 439.72Z" fill="#121214"/>
<path d="M366.864 514.064C366.722 514.054 366.589 513.994 366.486 513.896C366.384 513.798 366.318 513.668 366.301 513.527L366.214 511.915C366.206 511.761 366.255 511.61 366.352 511.49C366.449 511.37 366.586 511.29 366.739 511.266L369.562 510.791C369.013 510.104 368.403 509.468 367.738 508.892C367.627 508.83 367.531 508.744 367.458 508.641C367.384 508.537 367.335 508.418 367.313 508.292C367.151 507.443 368.2 505.794 369 504.757C368.083 502.791 367.399 500.724 366.964 498.598C366.476 496.337 364.84 485.593 363.303 474.662C363.282 474.497 363.326 474.329 363.426 474.196C363.527 474.063 363.675 473.975 363.84 473.95C364.004 473.929 364.17 473.973 364.301 474.074C364.432 474.175 364.518 474.323 364.54 474.487C366.039 485.206 367.713 496.124 368.188 498.323C368.606 500.488 369.307 502.588 370.274 504.57C370.342 504.669 370.378 504.787 370.378 504.907C370.378 505.027 370.342 505.145 370.274 505.244C369.589 506.079 369.029 507.009 368.613 508.005C369.578 508.891 370.469 509.857 371.274 510.891C371.343 510.976 371.389 511.078 371.406 511.187C371.424 511.295 371.412 511.406 371.373 511.509C371.334 511.612 371.268 511.702 371.182 511.771C371.097 511.84 370.995 511.886 370.886 511.903L367.538 512.453V513.514C367.545 513.596 367.535 513.679 367.509 513.756C367.482 513.834 367.441 513.906 367.385 513.967C367.33 514.028 367.264 514.076 367.189 514.11C367.114 514.144 367.033 514.163 366.951 514.164L366.864 514.064Z" fill="#121214"/>
<path d="M363.041 469.04C362.89 469.039 362.744 468.984 362.63 468.886C362.516 468.788 362.44 468.652 362.416 468.503C361.629 462.619 360.63 454.761 360.342 450.713C359.643 441.131 360.455 420.156 360.467 419.943C360.477 419.779 360.55 419.624 360.671 419.513C360.792 419.401 360.952 419.34 361.117 419.344C361.199 419.347 361.28 419.366 361.354 419.401C361.429 419.435 361.496 419.484 361.552 419.544C361.607 419.605 361.651 419.675 361.679 419.752C361.707 419.829 361.72 419.911 361.717 419.993C361.717 420.206 360.892 441.106 361.579 450.626C361.867 454.636 362.829 462.469 363.653 468.34C363.675 468.503 363.632 468.667 363.534 468.797C363.435 468.928 363.29 469.015 363.128 469.04H363.041Z" fill="#121214"/>
<path d="M293.231 530.03C293.087 530.032 292.946 529.984 292.834 529.892C292.722 529.801 292.646 529.672 292.619 529.53C292.603 529.45 292.602 529.367 292.618 529.286C292.633 529.206 292.665 529.129 292.71 529.061C292.755 528.992 292.814 528.933 292.882 528.888C292.95 528.842 293.026 528.81 293.106 528.793L302.488 526.919C302.65 526.889 302.818 526.923 302.955 527.014C303.093 527.105 303.189 527.246 303.225 527.406C303.242 527.487 303.242 527.57 303.227 527.65C303.211 527.731 303.18 527.807 303.135 527.876C303.089 527.944 303.031 528.003 302.963 528.049C302.895 528.095 302.819 528.127 302.738 528.144L293.344 530.03H293.231Z" fill="#121214"/>
<path d="M309.372 526.807C309.227 526.804 309.087 526.752 308.975 526.658C308.864 526.565 308.788 526.437 308.76 526.295C308.743 526.215 308.743 526.133 308.759 526.053C308.774 525.973 308.806 525.898 308.851 525.83C308.897 525.763 308.955 525.705 309.023 525.66C309.091 525.616 309.167 525.585 309.247 525.57L361.092 515.188C361.172 515.172 361.255 515.172 361.336 515.187C361.416 515.203 361.493 515.234 361.561 515.279C361.63 515.325 361.689 515.383 361.734 515.451C361.78 515.519 361.812 515.595 361.829 515.676C361.859 515.838 361.825 516.005 361.734 516.142C361.643 516.28 361.502 516.377 361.342 516.413L309.497 526.794L309.372 526.807Z" fill="#121214"/>
<path d="M482.01 444.504C481.847 444.501 481.692 444.436 481.576 444.322C481.459 444.209 481.391 444.055 481.385 443.892C481.383 443.81 481.398 443.729 481.428 443.652C481.458 443.576 481.502 443.506 481.559 443.447C481.616 443.388 481.684 443.34 481.759 443.307C481.834 443.274 481.915 443.257 481.997 443.255C488.897 442.961 495.753 442.012 502.473 440.419C502.633 440.382 502.802 440.409 502.943 440.496C503.083 440.582 503.184 440.721 503.222 440.881C503.261 441.042 503.235 441.211 503.151 441.353C503.067 441.495 502.932 441.599 502.773 441.643C495.952 443.247 488.997 444.205 481.997 444.504H482.01Z" fill="#121214"/>
<path d="M495.277 446.853C495.133 446.853 494.993 446.803 494.882 446.712C494.77 446.621 494.694 446.494 494.665 446.353C494.635 446.189 494.671 446.021 494.765 445.883C494.858 445.745 495.002 445.649 495.165 445.616C506.308 443.505 515.34 436.284 515.428 436.209C515.492 436.157 515.565 436.119 515.644 436.095C515.723 436.072 515.806 436.065 515.888 436.073C515.969 436.082 516.049 436.107 516.121 436.146C516.193 436.186 516.257 436.239 516.309 436.303C516.36 436.367 516.399 436.44 516.422 436.519C516.445 436.598 516.453 436.681 516.444 436.762C516.435 436.844 516.411 436.924 516.371 436.996C516.332 437.068 516.279 437.132 516.215 437.183C516.115 437.258 506.858 444.679 495.402 446.84L495.277 446.853Z" fill="#121214"/>
<path d="M475.638 430.862C475.52 430.86 475.405 430.825 475.306 430.761C475.207 430.697 475.127 430.606 475.076 430.5C475.041 430.426 475.02 430.346 475.016 430.265C475.012 430.183 475.024 430.101 475.052 430.024C475.08 429.947 475.123 429.877 475.179 429.817C475.234 429.757 475.301 429.709 475.376 429.675C477.237 428.776 478.961 427.876 480.498 426.977C480.569 426.925 480.649 426.889 480.735 426.871C480.82 426.853 480.909 426.853 480.994 426.871C481.08 426.889 481.16 426.925 481.231 426.976C481.302 427.027 481.361 427.093 481.405 427.168C481.449 427.244 481.477 427.328 481.486 427.415C481.496 427.501 481.487 427.589 481.46 427.673C481.434 427.756 481.39 427.832 481.332 427.898C481.273 427.963 481.202 428.015 481.123 428.051C479.561 428.976 477.812 429.888 475.913 430.8C475.827 430.84 475.733 430.861 475.638 430.862Z" fill="#121214"/>
<path d="M421.844 446.416C421.698 446.418 421.556 446.367 421.443 446.273C421.331 446.179 421.256 446.048 421.232 445.903C421.216 445.823 421.216 445.74 421.233 445.66C421.249 445.579 421.282 445.503 421.328 445.435C421.375 445.368 421.435 445.31 421.504 445.266C421.573 445.222 421.651 445.192 421.732 445.179C422.007 445.179 448.991 440.369 469.03 432.411C469.184 432.353 469.355 432.357 469.506 432.422C469.658 432.488 469.778 432.609 469.842 432.761C469.872 432.837 469.887 432.919 469.886 433.001C469.885 433.083 469.868 433.164 469.835 433.24C469.803 433.315 469.756 433.383 469.697 433.441C469.638 433.498 469.568 433.543 469.492 433.573C449.329 441.581 422.219 446.366 421.957 446.403L421.844 446.416Z" fill="#121214"/>
<path d="M348.049 344.874C348.049 344.874 352.759 393.596 352.797 394.296C352.834 394.995 350.461 413.934 352.397 415.021C354.333 416.108 359.081 417.045 365.727 418.369C372.373 419.694 385.803 419.756 395.11 417.657C404.417 415.559 422.981 405.477 424.568 403.99C426.154 402.504 429.902 397.619 430.04 395.72C430.177 393.821 424.343 350.821 424.343 350.821L426.129 329.583L436.898 304.123C436.898 304.123 471.79 281.261 476.95 276.064C482.109 270.867 495.277 256.076 494.977 254.726C494.677 253.377 469.667 232.652 461.909 227.854C454.151 223.057 441.92 213.763 440.071 214.325C438.222 214.887 429.04 224.506 429.865 227.055C430.689 229.603 456.749 257.512 456.749 257.512L438.447 268.056L395.972 289.406C395.972 289.406 374.434 291.63 362.116 299.75C349.798 307.871 326.487 326.66 330.659 330.22C334.832 333.781 348.049 344.874 348.049 344.874Z" fill="#F9F2F9"/>
<path d="M377.845 419.943C373.747 420.003 369.653 419.685 365.614 418.994C358.931 417.67 354.108 416.708 352.085 415.571C350.898 414.909 350.46 411.448 351.997 396.282C352.085 395.308 352.172 394.471 352.172 394.321C352.172 393.659 349.086 362.052 347.45 345.199C345.788 343.812 334.082 333.956 330.222 330.683C329.971 330.46 329.776 330.18 329.655 329.868C329.533 329.555 329.488 329.217 329.523 328.884C329.91 322.637 352.422 305.372 361.754 299.213C373.585 291.405 394.035 288.982 395.772 288.782L438.16 267.482L455.762 257.35C451.377 252.653 430.077 229.716 429.277 227.23C429.119 226.284 429.329 225.314 429.865 224.519C431.814 220.771 438.097 214.25 439.859 213.713C441.208 213.3 444.981 215.736 453.264 221.383C456.349 223.494 459.51 225.668 462.196 227.317C468.817 231.402 495.114 252.603 495.539 254.576C496.026 256.788 478.874 274.965 477.35 276.489C472.353 281.548 440.234 302.649 437.373 304.535L426.716 329.733L425.017 350.821C425.655 355.543 430.864 393.896 430.714 395.795C430.552 397.944 426.604 402.991 425.042 404.465C423.481 405.939 404.704 416.171 395.297 418.282C389.554 419.448 383.704 420.005 377.845 419.943ZM440.309 214.912H440.234C438.984 215.287 432.913 221.408 430.976 225.094C430.352 226.343 430.427 226.743 430.464 226.855C431.039 228.616 446.78 245.894 457.211 257.075C457.274 257.146 457.321 257.229 457.35 257.32C457.378 257.41 457.386 257.506 457.374 257.6C457.36 257.694 457.325 257.783 457.271 257.861C457.216 257.94 457.145 258.004 457.061 258.049L438.759 268.581L396.284 289.906C396.215 289.944 396.138 289.965 396.059 289.969C395.847 289.969 374.534 292.28 362.491 300.225C350.086 308.408 331.122 324.036 330.822 328.958C330.796 329.099 330.806 329.244 330.852 329.38C330.898 329.516 330.978 329.637 331.084 329.733C335.207 333.244 348.374 344.3 348.499 344.412C348.562 344.462 348.615 344.524 348.654 344.595C348.692 344.666 348.716 344.744 348.724 344.824C348.911 346.823 353.434 393.546 353.471 394.271C353.471 394.433 353.471 394.82 353.284 396.407C351.872 410.374 352.235 413.959 352.772 414.509C354.596 415.521 359.343 416.47 365.902 417.77C372.46 419.069 385.89 419.131 395.022 417.058C404.154 414.984 422.744 404.84 424.13 403.59C425.755 402.054 429.302 397.344 429.415 395.732C429.515 394.371 426.067 368.248 423.718 350.958V350.821L425.505 329.583C425.499 329.521 425.499 329.458 425.505 329.396L436.273 303.935C436.323 303.822 436.4 303.723 436.498 303.648C436.848 303.423 471.403 280.761 476.475 275.677C482.209 269.905 493.628 256.938 494.302 254.889C492.691 252.64 469.192 233.164 461.546 228.442C458.873 226.78 455.675 224.594 452.564 222.47C447.942 219.234 441.595 214.949 440.309 214.949V214.912Z" fill="#121214"/>
<path d="M452.501 280.749C452.382 280.747 452.265 280.712 452.164 280.649C452.025 280.559 451.927 280.418 451.892 280.257C451.857 280.095 451.887 279.926 451.977 279.787L453.913 276.801C454.004 276.662 454.147 276.565 454.31 276.531C454.472 276.497 454.642 276.529 454.781 276.62C454.92 276.711 455.018 276.854 455.052 277.017C455.086 277.179 455.054 277.349 454.962 277.488L453.026 280.462C452.971 280.551 452.894 280.625 452.802 280.675C452.71 280.726 452.606 280.751 452.501 280.749Z" fill="#121214"/>
<path d="M436.898 304.735C436.799 304.734 436.701 304.712 436.611 304.673C436.474 304.6 436.367 304.481 436.312 304.336C436.257 304.191 436.257 304.031 436.311 303.886L445.318 280.861C445.386 280.719 445.505 280.607 445.651 280.549C445.798 280.491 445.961 280.49 446.108 280.547C446.255 280.604 446.375 280.714 446.444 280.856C446.513 280.998 446.526 281.16 446.48 281.311L439.709 298.651L449.141 284.134C449.182 284.058 449.239 283.991 449.307 283.937C449.376 283.884 449.455 283.845 449.539 283.824C449.623 283.803 449.711 283.799 449.797 283.814C449.882 283.829 449.964 283.861 450.036 283.909C450.109 283.957 450.171 284.02 450.217 284.093C450.264 284.166 450.295 284.248 450.309 284.334C450.322 284.42 450.317 284.508 450.295 284.592C450.272 284.676 450.232 284.754 450.178 284.822L437.423 304.46C437.364 304.545 437.286 304.614 437.194 304.662C437.103 304.71 437.001 304.735 436.898 304.735Z" fill="#121214"/>
<path d="M459.073 257.55C458.907 257.576 458.738 257.536 458.602 257.438C458.466 257.339 458.375 257.191 458.348 257.025C458.322 256.859 458.362 256.69 458.461 256.554C458.559 256.418 458.707 256.327 458.873 256.301C459.36 256.138 470.904 252.153 474.626 253.19C476.514 253.575 478.273 254.435 479.736 255.688C479.798 255.747 479.848 255.818 479.882 255.896C479.916 255.975 479.934 256.06 479.934 256.145C479.934 256.231 479.916 256.316 479.882 256.394C479.848 256.473 479.798 256.543 479.735 256.602C479.672 256.66 479.598 256.705 479.517 256.733C479.437 256.762 479.351 256.774 479.266 256.768C479.18 256.762 479.097 256.738 479.021 256.699C478.945 256.659 478.878 256.604 478.824 256.538C477.51 255.457 475.954 254.711 474.289 254.364C471.503 253.577 462.508 256.326 459.298 257.45C459.23 257.498 459.154 257.531 459.073 257.55Z" fill="#121214"/>
<path d="M465.981 254.389C465.879 254.389 465.777 254.363 465.688 254.312C465.598 254.262 465.523 254.19 465.469 254.102C465.423 254.034 465.39 253.958 465.374 253.877C465.358 253.797 465.358 253.714 465.374 253.634C465.39 253.553 465.423 253.477 465.469 253.409C465.515 253.342 465.575 253.284 465.644 253.24C466.922 252.467 468.249 251.778 469.617 251.178C472.54 249.792 478.949 251.328 479.224 251.391C479.385 251.432 479.524 251.535 479.61 251.678C479.697 251.82 479.724 251.991 479.686 252.153C479.666 252.233 479.63 252.307 479.58 252.373C479.531 252.439 479.469 252.494 479.398 252.536C479.328 252.578 479.249 252.605 479.168 252.617C479.086 252.628 479.003 252.623 478.924 252.603C477.2 252.19 472.253 251.353 470.179 252.303C468.868 252.906 467.592 253.581 466.356 254.327C466.242 254.388 466.11 254.41 465.981 254.389Z" fill="#121214"/>
<path d="M380.468 392.884C380.358 392.886 380.249 392.856 380.156 392.797C379.127 392.205 378.142 391.542 377.208 390.81C377.088 390.706 377.013 390.559 376.998 390.401C376.982 390.243 377.028 390.084 377.125 389.959C377.222 389.833 377.364 389.749 377.521 389.724C377.678 389.698 377.838 389.734 377.97 389.823C378.864 390.517 379.803 391.151 380.781 391.722C380.898 391.792 380.989 391.898 381.041 392.024C381.092 392.15 381.101 392.29 381.065 392.422C381.03 392.553 380.952 392.67 380.845 392.753C380.737 392.837 380.605 392.883 380.468 392.884Z" fill="#121214"/>
<path d="M374.722 388.512C374.565 388.513 374.413 388.455 374.297 388.349C363.94 378.88 352.41 361.177 352.285 361.002C352.193 360.863 352.161 360.694 352.195 360.531C352.229 360.368 352.327 360.225 352.466 360.134C352.605 360.043 352.775 360.011 352.937 360.045C353.1 360.079 353.243 360.176 353.334 360.315C353.459 360.49 364.902 378.068 375.134 387.425C375.227 387.509 375.292 387.619 375.321 387.741C375.35 387.863 375.342 387.991 375.298 388.108C375.253 388.226 375.175 388.327 375.072 388.399C374.969 388.471 374.847 388.51 374.722 388.512Z" fill="#121214"/>
<path d="M386.015 400.617H385.878C384.292 400.262 382.731 399.803 381.205 399.243C381.05 399.185 380.923 399.068 380.854 398.916C380.785 398.765 380.779 398.593 380.837 398.437C380.895 398.282 381.012 398.155 381.163 398.086C381.314 398.017 381.487 398.011 381.643 398.069C383.114 398.612 384.621 399.054 386.152 399.393C386.318 399.411 386.47 399.494 386.574 399.624C386.678 399.755 386.727 399.921 386.708 400.086C386.69 400.252 386.607 400.404 386.477 400.508C386.347 400.612 386.181 400.66 386.015 400.642V400.617Z" fill="#121214"/>
<path d="M379.257 398.381C379.17 398.399 379.081 398.399 378.994 398.381C373.924 396.187 369.49 392.75 366.102 388.387C366.05 388.32 366.012 388.243 365.991 388.161C365.969 388.079 365.965 387.993 365.978 387.909C365.991 387.826 366.02 387.745 366.065 387.673C366.11 387.602 366.169 387.539 366.239 387.491C366.308 387.443 366.387 387.409 366.47 387.392C366.553 387.375 366.639 387.375 366.722 387.392C366.805 387.41 366.883 387.443 366.953 387.492C367.022 387.54 367.081 387.603 367.126 387.675C370.406 391.825 374.658 395.103 379.506 397.219C379.657 397.287 379.774 397.412 379.833 397.567C379.891 397.721 379.886 397.893 379.819 398.044C379.767 398.147 379.686 398.234 379.587 398.294C379.487 398.354 379.373 398.384 379.257 398.381Z" fill="#121214"/>
<path d="M415.735 303.81L422.157 315.466L418.321 399.168L430.927 412.31L440.021 395.058L425.467 315.304L430.327 305.397L426.067 296.177L415.735 303.81Z" fill="#121214"/>
<path d="M430.927 412.935C430.842 412.934 430.759 412.916 430.681 412.881C430.604 412.847 430.534 412.797 430.477 412.735L417.872 399.593C417.758 399.471 417.695 399.31 417.697 399.143L421.532 315.616L415.186 304.111C415.112 303.978 415.091 303.822 415.126 303.675C415.16 303.527 415.248 303.397 415.373 303.311L425.692 295.678C425.766 295.622 425.852 295.584 425.943 295.566C426.034 295.549 426.128 295.553 426.217 295.578C426.308 295.601 426.392 295.644 426.464 295.705C426.535 295.766 426.592 295.842 426.629 295.928L430.902 305.135C430.942 305.219 430.962 305.311 430.962 305.404C430.962 305.496 430.942 305.588 430.902 305.672L426.129 315.404L440.646 394.945C440.669 395.086 440.647 395.23 440.584 395.358L431.489 412.598C431.444 412.686 431.379 412.761 431.298 412.818C431.218 412.875 431.124 412.911 431.027 412.923L430.927 412.935ZM418.959 398.931L430.777 411.249L439.372 395.008L424.843 315.466C424.82 315.334 424.842 315.198 424.905 315.079L429.64 305.435L425.817 297.189L416.548 304.036L422.706 315.279C422.762 315.378 422.788 315.491 422.781 315.604L418.959 398.931Z" fill="#121214"/>
<path d="M421.594 232.839C421.594 232.839 434.487 239.873 434.574 241.584C434.876 243.16 435.483 244.663 436.361 246.007C436.361 246.007 444.044 250.541 445.106 251.866C446.167 253.19 443.856 258.999 443.856 258.999C443.856 258.999 448.591 267.394 448.654 268.768C448.716 270.143 447.617 271.767 446.692 272.991C445.768 274.215 436.698 277.788 436.698 277.788L425.892 301.862C424.872 302.122 423.821 302.24 422.768 302.212C421.519 302.074 398.095 279.6 398.095 279.6L400.594 273.066L391.711 255.826C391.711 255.826 398.345 238.823 406.203 234.913C410.981 232.597 416.374 231.87 421.594 232.839Z" fill="#F9F2F9"/>
<path d="M423.268 302.911H422.719C421.569 302.774 408.477 290.418 397.733 280.137C397.646 280.051 397.585 279.941 397.559 279.822C397.532 279.702 397.541 279.577 397.583 279.462L399.944 273.216L391.199 256.226C391.165 256.145 391.148 256.058 391.148 255.97C391.148 255.882 391.165 255.795 391.199 255.713C391.474 255.014 398.021 238.436 406.003 234.476C410.9 232.056 416.453 231.297 421.819 232.314H421.982C426.916 235 435.199 239.81 435.286 241.622C435.561 243.046 436.108 244.403 436.898 245.619C438.147 246.356 444.619 250.242 445.643 251.553C446.667 252.865 445.256 257.325 444.606 259.049C445.655 260.923 449.278 267.469 449.341 268.843C449.403 270.218 448.329 272.042 447.255 273.466C446.33 274.715 439.222 277.588 437.26 278.375L426.554 302.224C426.514 302.31 426.455 302.387 426.381 302.447C426.308 302.508 426.222 302.551 426.129 302.574C425.19 302.785 424.231 302.898 423.268 302.911ZM398.845 279.487C407.952 288.232 421.682 301.075 422.981 301.662C423.823 301.677 424.663 301.58 425.48 301.375L436.161 277.638C436.191 277.563 436.237 277.496 436.295 277.44C436.353 277.384 436.422 277.341 436.498 277.313C440.858 275.577 445.693 273.391 446.205 272.716C446.717 272.042 448.092 270.218 448.029 268.968C448.029 268.194 445.606 263.534 443.319 259.461C443.277 259.378 443.254 259.286 443.254 259.193C443.254 259.099 443.277 259.007 443.319 258.924C444.344 256.288 445.131 253.04 444.631 252.415C443.919 251.516 439.009 248.443 436.086 246.706C435.999 246.66 435.925 246.591 435.874 246.506C434.933 245.071 434.292 243.46 433.987 241.772C433.675 240.772 427.229 236.774 421.407 233.539C416.342 232.658 411.128 233.392 406.503 235.638C399.47 239.136 393.286 253.815 392.424 255.963L401.169 272.941C401.205 273.019 401.225 273.104 401.225 273.191C401.225 273.277 401.205 273.363 401.169 273.441L398.845 279.487Z" fill="#121214"/>
<path d="M436.723 277.838L427.029 279.337L433.4 284.884L436.723 277.838Z" fill="#121214"/>
<path d="M433.413 285.509C433.26 285.506 433.114 285.448 433 285.346L426.617 279.799C426.525 279.725 426.458 279.624 426.424 279.51C426.391 279.396 426.393 279.275 426.429 279.162C426.46 279.047 426.523 278.943 426.612 278.863C426.701 278.783 426.811 278.731 426.929 278.713L436.636 277.226C436.746 277.207 436.86 277.219 436.963 277.261C437.067 277.303 437.157 277.373 437.223 277.463C437.29 277.554 437.331 277.661 437.342 277.773C437.353 277.885 437.334 277.998 437.286 278.1L433.975 285.146C433.931 285.232 433.869 285.308 433.794 285.368C433.718 285.428 433.631 285.472 433.538 285.496L433.413 285.509ZM428.416 279.749L433.163 283.872L435.661 278.638L428.416 279.749Z" fill="#121214"/>
<path d="M427.178 246.356C427.078 246.357 426.979 246.331 426.891 246.281C426.744 246.207 426.632 246.076 426.581 245.92C426.529 245.763 426.542 245.592 426.616 245.444C427.235 244.073 428.364 242.996 429.762 242.441C431.161 241.886 432.721 241.897 434.112 242.471C434.264 242.537 434.384 242.661 434.445 242.816C434.506 242.971 434.503 243.143 434.437 243.296C434.37 243.448 434.246 243.568 434.092 243.629C433.937 243.69 433.765 243.687 433.612 243.62C433.066 243.384 432.479 243.258 431.884 243.25C431.289 243.243 430.699 243.353 430.147 243.575C429.595 243.797 429.093 244.126 428.669 244.543C428.245 244.961 427.908 245.458 427.678 246.007C427.633 246.103 427.563 246.187 427.475 246.248C427.387 246.31 427.285 246.347 427.178 246.356Z" fill="#121214"/>
<path d="M433.962 247.593C434.487 248.53 434.474 249.542 433.962 249.842C433.45 250.142 432.563 249.617 432.038 248.68C431.513 247.743 431.513 246.731 432.038 246.431C432.563 246.131 433.437 246.644 433.962 247.593Z" fill="#121214"/>
<path d="M438.36 263.584C438.249 263.583 438.141 263.553 438.046 263.496C437.952 263.438 437.874 263.357 437.823 263.259C437.742 263.115 437.721 262.944 437.766 262.785C437.81 262.626 437.916 262.491 438.06 262.41C441.221 260.636 443.307 262.172 443.394 262.235C443.508 262.339 443.578 262.481 443.593 262.634C443.607 262.788 443.565 262.941 443.474 263.065C443.382 263.188 443.249 263.274 443.098 263.305C442.947 263.337 442.79 263.311 442.657 263.234C442.582 263.234 441.083 262.147 438.672 263.509C438.575 263.557 438.468 263.583 438.36 263.584Z" fill="#121214"/>
<path d="M416.61 235.238C416.61 235.238 425.155 233.451 426.217 231.053C427.279 228.654 427.653 220.184 423.406 221.758C419.158 223.332 418.409 224.357 418.409 224.357C418.409 224.357 411.075 214.9 407.29 217.835C403.505 220.771 405.816 223.794 405.816 223.794C405.816 223.794 399.782 224.869 397.758 227.542C395.734 230.216 397.896 230.478 397.896 230.478C397.896 230.478 383.466 240.472 383.042 252.003C382.617 263.534 396.034 272.966 400.681 275.739C405.329 278.513 406.69 278.388 408.602 277.313C410.513 276.239 414.561 270.542 414.561 270.542C414.561 270.542 408.077 266.545 406.965 263.846C405.853 261.148 407.065 257.762 409.601 257.437C410.606 257.354 411.614 257.565 412.501 258.044C413.388 258.523 414.117 259.25 414.598 260.136C414.848 261.11 417.322 259.424 417.322 259.424C417.322 259.424 414.548 255.039 413.699 253.515C412.849 251.991 419.183 245.394 418.883 243.246C418.584 241.097 410.501 240.322 409.876 239.498C409.251 238.673 416.61 235.238 416.61 235.238Z" fill="#121214"/>
<path d="M406.378 278.55C404.979 278.55 403.255 277.876 400.382 276.202C398.495 275.09 381.967 265.033 382.442 251.953C382.817 241.672 393.611 232.877 396.746 230.54C396.603 230.397 396.489 230.227 396.409 230.041C396.097 229.266 396.409 228.317 397.284 227.142C398.983 224.919 403.118 223.757 404.904 223.395C404.379 222.145 403.942 219.709 406.94 217.386C410.688 214.487 416.76 221.358 418.509 223.507C419.959 222.536 421.536 221.767 423.194 221.221C423.69 220.984 424.25 220.91 424.791 221.011C425.332 221.112 425.827 221.383 426.204 221.783C428.203 223.907 427.579 229.541 426.792 231.353C425.655 233.851 418.047 235.638 416.797 235.887C414.696 236.844 412.681 237.981 410.776 239.285C411.263 239.423 412.112 239.623 412.825 239.798C416.497 240.66 419.321 241.459 419.558 243.133C419.721 244.382 418.596 246.094 416.722 248.817C415.748 250.242 414.124 252.628 414.299 253.19C415.136 254.677 417.872 259.024 417.897 259.061C417.983 259.198 418.013 259.363 417.981 259.522C417.948 259.68 417.855 259.82 417.722 259.911C416.947 260.448 415.511 261.285 414.661 260.96C414.51 260.905 414.376 260.814 414.269 260.694C414.162 260.574 414.086 260.429 414.049 260.273C413.6 259.536 412.957 258.938 412.19 258.543C411.423 258.149 410.562 257.973 409.701 258.037C409.295 258.099 408.909 258.255 408.575 258.494C408.241 258.733 407.967 259.047 407.778 259.411C407.435 260.048 407.238 260.752 407.201 261.474C407.165 262.195 407.289 262.916 407.565 263.584C408.415 265.645 413.149 268.906 414.898 269.993C414.971 270.036 415.034 270.094 415.083 270.163C415.132 270.232 415.167 270.31 415.186 270.392C415.202 270.477 415.201 270.564 415.182 270.648C415.162 270.732 415.125 270.811 415.073 270.88C414.661 271.479 410.901 276.726 408.927 277.826C408.156 278.288 407.277 278.538 406.378 278.55ZM409.027 217.898C408.55 217.885 408.083 218.035 407.703 218.323C404.529 220.821 406.141 223.157 406.341 223.42C406.408 223.504 406.451 223.604 406.468 223.71C406.484 223.816 406.471 223.925 406.432 224.025C406.393 224.125 406.328 224.213 406.244 224.28C406.16 224.347 406.06 224.39 405.954 224.407C405.891 224.407 400.132 225.468 398.27 227.904C397.433 228.991 397.521 229.441 397.558 229.554C397.596 229.666 398.008 229.841 398.008 229.841C398.134 229.855 398.253 229.907 398.347 229.991C398.442 230.075 398.508 230.187 398.537 230.31C398.566 230.434 398.556 230.563 398.508 230.68C398.46 230.797 398.377 230.897 398.27 230.965C398.133 231.065 384.091 240.86 383.691 252.003C383.242 264.358 399.195 274.053 401.019 275.115C405.754 277.888 406.778 277.613 408.327 276.689C409.651 275.952 412.362 272.466 413.687 270.642C412.05 269.58 407.44 266.395 406.416 264.009C406.064 263.162 405.908 262.247 405.96 261.332C406.011 260.417 406.27 259.525 406.716 258.724C406.995 258.192 407.399 257.735 407.892 257.391C408.386 257.047 408.955 256.828 409.551 256.75C410.683 256.644 411.821 256.87 412.826 257.4C413.831 257.931 414.66 258.742 415.211 259.736C415.672 259.601 416.114 259.403 416.522 259.149C415.76 257.9 413.899 254.964 413.212 253.74C412.525 252.515 413.712 250.979 415.71 248.068C416.86 246.381 418.446 244.07 418.334 243.258C418.221 242.446 414.386 241.397 412.55 240.959C410.713 240.522 409.801 240.297 409.464 239.885C409.384 239.792 409.327 239.681 409.298 239.561C409.27 239.442 409.271 239.317 409.302 239.198C409.489 238.348 411.8 236.824 416.335 234.676H416.472C419.658 234.013 424.968 232.389 425.642 230.84C426.317 229.291 426.717 224.157 425.292 222.645C425.082 222.425 424.805 222.282 424.504 222.237C424.204 222.191 423.896 222.247 423.631 222.395C419.758 223.844 418.934 224.781 418.921 224.794C418.866 224.873 418.79 224.935 418.702 224.975C418.614 225.014 418.517 225.029 418.421 225.019C418.329 225.02 418.237 225 418.152 224.961C418.068 224.922 417.994 224.865 417.934 224.794C416.273 222.608 411.938 217.898 409.027 217.898Z" fill="#121214"/>
<path d="M396.571 276.476L425.917 301.912L415.635 312.218L393.048 282.248L396.571 276.476Z" fill="#F9F2F9"/>
<path d="M415.635 312.843C415.545 312.838 415.456 312.813 415.376 312.77C415.296 312.727 415.227 312.666 415.173 312.593L392.586 282.61C392.516 282.507 392.479 282.385 392.479 282.26C392.479 282.136 392.516 282.014 392.586 281.911L396.034 276.164C396.083 276.088 396.147 276.024 396.223 275.974C396.298 275.925 396.383 275.892 396.471 275.877C396.563 275.862 396.656 275.868 396.744 275.894C396.833 275.92 396.915 275.965 396.984 276.026L426.329 301.449C426.395 301.505 426.447 301.573 426.484 301.651C426.521 301.729 426.54 301.813 426.541 301.899C426.546 301.984 426.533 302.069 426.503 302.149C426.473 302.228 426.426 302.301 426.367 302.361L416.073 312.68C415.953 312.789 415.797 312.847 415.635 312.843ZM393.785 282.21L415.673 311.269L424.98 301.949L396.721 277.413L393.785 282.21Z" fill="#121214"/>
<path d="M428.84 295.79L431.814 299.213L425.917 301.912L428.84 295.79Z" fill="#F9F2F9"/>
<path d="M425.917 302.536C425.835 302.537 425.754 302.521 425.679 302.489C425.603 302.457 425.536 302.409 425.48 302.349C425.389 302.26 425.328 302.144 425.305 302.019C425.283 301.894 425.3 301.764 425.355 301.649L428.278 295.528C428.323 295.434 428.391 295.353 428.475 295.292C428.559 295.231 428.657 295.192 428.759 295.179C428.862 295.165 428.967 295.177 429.064 295.214C429.161 295.251 429.247 295.312 429.315 295.39L432.288 298.801C432.351 298.877 432.395 298.965 432.419 299.06C432.443 299.155 432.445 299.255 432.426 299.351C432.401 299.444 432.358 299.531 432.297 299.607C432.237 299.682 432.162 299.744 432.076 299.788L426.179 302.486C426.096 302.521 426.007 302.538 425.917 302.536ZM428.99 296.927L427.229 300.675L430.789 299.038L428.99 296.927Z" fill="#121214"/>
<path d="M431.814 299.213L434.137 310.557L425.917 301.912L431.814 299.213Z" fill="#F9F2F9"/>
<path d="M434.137 311.144C433.968 311.143 433.807 311.076 433.687 310.956L425.467 302.399C425.4 302.326 425.35 302.238 425.322 302.143C425.294 302.048 425.288 301.947 425.305 301.849C425.323 301.752 425.365 301.66 425.425 301.582C425.486 301.504 425.565 301.441 425.655 301.399L431.551 298.701C431.635 298.661 431.727 298.64 431.82 298.64C431.913 298.64 432.004 298.661 432.088 298.701C432.174 298.743 432.249 298.804 432.308 298.88C432.366 298.956 432.407 299.044 432.426 299.138L434.749 310.482C434.777 310.614 434.762 310.753 434.706 310.876C434.65 311 434.555 311.102 434.437 311.169C434.336 311.178 434.235 311.17 434.137 311.144ZM426.979 302.074L433.088 308.508L431.351 300.075L426.979 302.074Z" fill="#121214"/>
<path d="M404.567 357.055C404.567 357.055 426.454 356.767 427.216 356.73C427.978 356.693 436.986 363.888 436.786 365.175C436.586 366.462 433.525 371.422 433.525 371.422C433.525 371.422 428.765 378.268 427.279 379.354C425.792 380.441 426.029 380.941 423.531 380.816C421.698 380.601 419.934 379.992 418.359 379.03C418.359 379.03 405.791 377.343 403.892 374.895C402.329 373.065 400.541 371.441 398.57 370.06L404.567 357.055Z" fill="#F9F2F9"/>
<path d="M424.243 381.478H423.518C421.621 381.274 419.791 380.656 418.159 379.667C416.348 379.417 405.354 377.818 403.418 375.307C401.891 373.528 400.144 371.949 398.221 370.609C398.1 370.526 398.012 370.402 397.973 370.261C397.935 370.119 397.947 369.968 398.008 369.835L404.005 356.805C404.057 356.699 404.137 356.61 404.236 356.546C404.335 356.482 404.449 356.446 404.567 356.443C412.125 356.343 426.592 356.143 427.179 356.118C428.316 356.118 434.562 361.377 436.324 363.339C437.148 364.238 437.448 364.8 437.385 365.275C437.186 366.624 434.562 370.934 434.037 371.784C433.513 372.633 429.153 378.78 427.641 379.892C427.316 380.141 427.079 380.354 426.879 380.529C426.542 380.878 426.128 381.146 425.671 381.31C425.214 381.475 424.726 381.532 424.243 381.478ZM399.357 369.86C401.21 371.199 402.889 372.765 404.355 374.52C405.604 376.156 413.637 377.78 418.396 378.417C418.484 378.433 418.568 378.463 418.646 378.505C420.132 379.419 421.799 379.999 423.531 380.204C425.217 380.291 425.405 380.129 426.03 379.579C426.305 379.327 426.592 379.09 426.892 378.867C428.028 378.018 431.676 372.958 432.975 371.072C434.224 369.177 435.282 367.165 436.136 365.063C435.824 363.913 428.291 357.804 427.116 357.342C425.592 357.342 407.915 357.629 404.942 357.667L399.357 369.86Z" fill="#121214"/>
<path d="M433.763 371.234C433.664 371.235 433.566 371.213 433.477 371.17C433.388 371.126 433.31 371.063 433.25 370.984L426.742 362.239C426.642 362.107 426.6 361.94 426.623 361.776C426.646 361.612 426.734 361.464 426.867 361.365C426.999 361.265 427.166 361.223 427.33 361.246C427.494 361.269 427.642 361.357 427.741 361.49L434.262 370.235C434.311 370.301 434.346 370.376 434.365 370.456C434.385 370.536 434.388 370.619 434.375 370.7C434.362 370.782 434.334 370.86 434.291 370.93C434.248 371 434.191 371.061 434.125 371.109C434.022 371.191 433.894 371.235 433.763 371.234Z" fill="#121214"/>
<path d="M431.114 375.107C430.957 375.108 430.805 375.05 430.689 374.944L422.519 367.361C422.452 367.307 422.398 367.24 422.358 367.164C422.319 367.088 422.295 367.005 422.289 366.92C422.283 366.834 422.295 366.749 422.323 366.668C422.352 366.587 422.397 366.513 422.455 366.45C422.514 366.388 422.584 366.338 422.663 366.304C422.741 366.269 422.826 366.252 422.912 366.252C422.997 366.251 423.082 366.269 423.16 366.303C423.239 366.337 423.31 366.387 423.368 366.449L431.539 374.02C431.628 374.106 431.689 374.216 431.716 374.337C431.742 374.458 431.732 374.584 431.686 374.699C431.641 374.815 431.562 374.914 431.46 374.984C431.358 375.054 431.238 375.093 431.114 375.094V375.107Z" fill="#121214"/>
<path d="M427.691 378.605C427.571 378.607 427.453 378.572 427.354 378.505L420.27 374.008C420.199 373.965 420.137 373.909 420.088 373.842C420.04 373.776 420.005 373.7 419.986 373.619C419.967 373.539 419.965 373.455 419.98 373.374C419.994 373.292 420.025 373.215 420.07 373.146C420.16 373.007 420.301 372.909 420.463 372.874C420.624 372.839 420.793 372.869 420.932 372.958L428.028 377.455C428.167 377.545 428.265 377.686 428.3 377.848C428.335 378.009 428.305 378.178 428.216 378.317C428.161 378.407 428.084 378.481 427.992 378.531C427.9 378.582 427.796 378.607 427.691 378.605Z" fill="#121214"/>
<path d="M436.786 365.175C436.786 365.175 438.035 371.497 438.372 372.733C438.709 373.97 436.336 375.794 435.049 375.082C433.762 374.37 433.525 371.447 433.525 371.447L436.786 365.175Z" fill="#F9F2F9"/>
<path d="M435.724 375.869C435.383 375.872 435.047 375.786 434.749 375.619C433.213 374.77 432.938 371.871 432.9 371.496C432.899 371.38 432.925 371.264 432.975 371.159L436.236 364.913C436.298 364.798 436.393 364.704 436.509 364.644C436.625 364.584 436.756 364.56 436.886 364.575C437.013 364.594 437.13 364.653 437.222 364.743C437.314 364.832 437.376 364.949 437.398 365.075C437.398 365.138 438.647 371.384 438.972 372.571C439.05 373.05 438.986 373.542 438.788 373.986C438.591 374.429 438.268 374.806 437.86 375.069C437.253 375.56 436.504 375.84 435.724 375.869ZM434.175 371.559C434.275 372.471 434.662 374.145 435.362 374.532C435.667 374.606 435.985 374.6 436.287 374.515C436.589 374.429 436.864 374.268 437.086 374.045C437.623 373.608 437.848 373.133 437.785 372.908C437.523 372.071 436.911 369.023 436.536 367.049L434.175 371.559Z" fill="#121214"/>
<path d="M398.583 370.709C398.448 370.706 398.318 370.663 398.208 370.584L392.674 366.524C392.568 366.451 392.489 366.346 392.446 366.225C392.404 366.104 392.4 365.973 392.436 365.85L396.284 351.658C396.311 351.563 396.36 351.476 396.427 351.404C396.495 351.333 396.578 351.278 396.671 351.246C396.758 351.2 396.855 351.176 396.953 351.176C397.051 351.176 397.147 351.2 397.234 351.246L404.879 356.48C405 356.564 405.088 356.687 405.126 356.829C405.165 356.97 405.153 357.121 405.092 357.255L399.095 370.272C399.058 370.358 399.001 370.434 398.93 370.495C398.858 370.556 398.774 370.599 398.683 370.622L398.583 370.709ZM393.786 365.775L398.37 369.123L403.817 357.28L397.346 352.845L393.786 365.775Z" fill="#121214"/>
<path d="M407.115 314.892C407.115 314.892 408.364 298.276 403.605 289.906C398.845 281.536 388.213 282.248 371.123 287.657C354.033 293.067 309.334 326.035 308.472 329.396C307.61 332.756 317.942 340.902 323.913 343.138C329.885 345.374 385.128 366.874 386.202 367.611C387.277 368.348 391.612 368.86 392.998 366.012C394.385 363.164 398.545 354.281 396.896 351.82C395.247 349.359 370.174 330.957 370.174 330.957L394.797 319.077" fill="#F9F2F9"/>
<path d="M388.851 368.823C387.82 368.863 386.798 368.625 385.89 368.136C384.403 367.299 330.984 346.473 323.726 343.725C318.167 341.626 306.886 333.244 307.91 329.221C308.872 325.473 353.858 292.48 370.974 287.045C387.152 281.911 398.982 280.387 404.154 289.544C408.927 298.039 407.79 314.254 407.74 314.929C407.724 315.095 407.645 315.248 407.52 315.357C407.394 315.466 407.232 315.523 407.065 315.516C406.983 315.51 406.903 315.487 406.83 315.45C406.756 315.413 406.691 315.361 406.638 315.299C406.584 315.236 406.544 315.163 406.518 315.085C406.493 315.006 406.484 314.924 406.491 314.842C406.491 314.679 407.652 298.326 403.055 290.156C398.932 282.823 390.038 282.273 371.348 288.195C353.809 293.816 310.084 326.51 309.122 329.533C308.41 332.294 318.254 340.327 324.113 342.563C327.711 343.925 385.328 366.299 386.577 367.099C387.757 367.621 389.08 367.722 390.325 367.386C390.779 367.289 391.205 367.092 391.572 366.809C391.94 366.525 392.239 366.164 392.449 365.75C395.872 358.679 397.346 353.607 396.384 352.17C395.222 350.434 379.856 338.84 369.812 331.482C369.726 331.417 369.658 331.331 369.615 331.233C369.571 331.135 369.553 331.027 369.562 330.92C369.569 330.811 369.606 330.706 369.667 330.616C369.729 330.526 369.813 330.454 369.912 330.408L394.535 318.527C394.609 318.491 394.689 318.47 394.771 318.465C394.853 318.46 394.935 318.471 395.013 318.497C395.091 318.524 395.162 318.566 395.224 318.62C395.286 318.675 395.336 318.741 395.372 318.814C395.408 318.888 395.429 318.968 395.434 319.05C395.439 319.132 395.428 319.215 395.402 319.292C395.375 319.37 395.333 319.442 395.279 319.503C395.225 319.565 395.159 319.615 395.085 319.651L371.348 331.082C376.196 334.643 395.847 349.172 397.396 351.483C398.645 353.394 397.396 358.379 393.536 366.287C393.256 366.861 392.854 367.367 392.357 367.768C391.861 368.17 391.282 368.457 390.662 368.611C390.07 368.757 389.461 368.829 388.851 368.823Z" fill="#121214"/>
<path d="M333.183 318.877C333.017 318.91 332.845 318.876 332.705 318.782C332.564 318.688 332.466 318.543 332.433 318.377C332.4 318.211 332.434 318.039 332.528 317.899C332.622 317.758 332.767 317.661 332.933 317.628C334.125 317.134 335.348 316.717 336.593 316.378C336.752 316.336 336.922 316.358 337.064 316.44C337.207 316.522 337.312 316.657 337.355 316.816C337.378 316.893 337.385 316.975 337.376 317.056C337.367 317.136 337.342 317.215 337.303 317.285C337.263 317.356 337.21 317.419 337.146 317.469C337.082 317.519 337.009 317.556 336.931 317.578C335.74 317.921 334.572 318.338 333.433 318.827C333.354 318.861 333.269 318.878 333.183 318.877Z" fill="#121214"/>
<path d="M370.211 331.594C370.082 331.597 369.955 331.558 369.849 331.482C369.674 331.37 353.446 319.764 350.036 317.153C348.449 315.904 344.614 315.904 339.529 316.978C339.447 316.995 339.363 316.996 339.28 316.981C339.198 316.965 339.119 316.934 339.049 316.888C338.979 316.842 338.918 316.783 338.871 316.714C338.824 316.644 338.791 316.567 338.773 316.484C338.756 316.402 338.755 316.318 338.771 316.235C338.786 316.153 338.818 316.075 338.864 316.004C338.909 315.934 338.969 315.874 339.038 315.826C339.107 315.779 339.185 315.746 339.267 315.729C342.465 315.029 348.212 314.142 350.798 316.116C354.183 318.714 370.411 330.308 370.574 330.42C370.706 330.52 370.794 330.667 370.819 330.83C370.845 330.993 370.806 331.16 370.711 331.295C370.659 331.382 370.587 331.456 370.499 331.508C370.412 331.56 370.313 331.59 370.211 331.594Z" fill="#121214"/>
<path d="M357.082 318.227C356.96 318.228 356.84 318.192 356.738 318.126C356.636 318.059 356.556 317.964 356.507 317.852C354.133 312.343 346.975 312.605 346.913 312.618C346.747 312.626 346.585 312.568 346.462 312.457C346.339 312.346 346.265 312.19 346.257 312.025C346.248 311.859 346.306 311.697 346.418 311.574C346.529 311.451 346.684 311.377 346.85 311.369C347.187 311.369 354.933 311.044 357.656 317.353C357.689 317.428 357.707 317.509 357.709 317.592C357.71 317.674 357.696 317.756 357.665 317.833C357.635 317.909 357.59 317.979 357.533 318.038C357.476 318.097 357.407 318.145 357.332 318.177C357.253 318.212 357.168 318.229 357.082 318.227Z" fill="#121214"/>
<path d="M392.436 326.135C392.283 326.133 392.136 326.074 392.023 325.971C391.91 325.867 391.84 325.725 391.824 325.573C391.816 325.491 391.823 325.408 391.847 325.329C391.871 325.25 391.91 325.176 391.962 325.112C392.014 325.048 392.079 324.995 392.152 324.957C392.224 324.918 392.304 324.894 392.386 324.886L395.972 324.524C396.135 324.509 396.298 324.558 396.426 324.661C396.553 324.763 396.637 324.911 396.659 325.073C396.668 325.155 396.66 325.238 396.636 325.317C396.613 325.397 396.573 325.47 396.521 325.534C396.469 325.598 396.404 325.651 396.332 325.69C396.259 325.729 396.179 325.753 396.097 325.76L392.536 326.135H392.436Z" fill="#121214"/>
<path d="M378.707 327.559C378.552 327.557 378.403 327.499 378.288 327.396C378.174 327.292 378.1 327.151 378.082 326.997C378.071 326.833 378.123 326.67 378.227 326.543C378.332 326.415 378.481 326.332 378.644 326.31L388.226 325.323C388.392 325.306 388.557 325.356 388.686 325.462C388.815 325.567 388.897 325.72 388.913 325.885C388.93 326.051 388.88 326.216 388.774 326.345C388.669 326.474 388.517 326.556 388.351 326.572L378.769 327.559H378.707Z" fill="#121214"/>
<path d="M435.674 196.298C435.674 196.298 440.921 190.513 441.121 189.801C441.321 189.089 443.269 178.408 443.269 178.408L440.771 180.632L435.674 196.298Z" fill="#F9F2F9"/>
<path d="M435.674 196.922C435.564 196.92 435.456 196.89 435.361 196.835C435.237 196.762 435.142 196.65 435.089 196.516C435.037 196.383 435.032 196.235 435.074 196.098L440.196 180.432C440.235 180.333 440.295 180.244 440.371 180.17L442.87 177.946C442.966 177.857 443.088 177.801 443.218 177.785C443.349 177.77 443.48 177.796 443.595 177.859C443.71 177.923 443.802 178.021 443.858 178.14C443.913 178.258 443.931 178.392 443.906 178.521C443.707 179.62 441.945 189.239 441.745 189.964C441.545 190.688 438.147 194.511 436.161 196.71C436.1 196.778 436.025 196.833 435.94 196.869C435.856 196.906 435.765 196.924 435.674 196.922ZM441.333 180.982L437.185 193.712C438.38 192.433 439.494 191.081 440.521 189.664C440.633 189.252 441.57 184.267 442.32 180.157L441.333 180.982Z" fill="#121214"/>
<path d="M425.467 218.785C425.467 218.785 414.224 209.215 415.885 205.605C417.547 201.994 435.874 185.616 435.874 185.616C435.874 185.616 440.534 179.97 440.808 180.619C441.083 181.269 439.772 188.427 438.697 190.613C437.623 192.8 428.853 205.917 428.853 205.917L433.775 210.377L425.467 218.785Z" fill="#F9F2F9"/>
<path d="M425.467 219.409C425.32 219.411 425.177 219.358 425.067 219.259C423.119 217.61 413.499 209.19 415.323 205.33C417.147 201.47 434.687 185.791 435.436 185.117C439.834 179.795 440.434 179.895 440.821 179.957C440.942 179.983 441.055 180.037 441.15 180.115C441.246 180.193 441.321 180.293 441.371 180.407C441.783 181.444 440.284 188.79 439.247 190.888C438.21 192.987 431.239 203.456 429.665 205.817L434.187 209.915C434.307 210.036 434.374 210.2 434.374 210.371C434.374 210.541 434.307 210.705 434.187 210.827L425.879 219.222C425.827 219.279 425.763 219.325 425.692 219.357C425.621 219.389 425.545 219.407 425.467 219.409ZM440.159 181.731C439.234 182.618 437.66 184.38 436.336 185.979C429.99 191.688 417.759 203.106 416.447 205.867C415.398 208.103 421.232 214.287 425.43 217.935L432.863 210.439L428.428 206.417C428.314 206.318 428.241 206.18 428.222 206.03C428.204 205.88 428.242 205.729 428.328 205.605C428.416 205.48 437.073 192.487 438.135 190.376C439.136 187.581 439.815 184.68 440.159 181.731Z" fill="#121214"/>
<path d="M543.249 0.673218L450.802 55.1792L463.495 78.4283C461.771 79.8774 331.072 230.84 267.658 304.073C257.068 316.294 243.962 326.083 229.237 332.767C214.512 339.451 198.516 342.874 182.345 342.8L16.5659 342.188V392.159L195.937 392.247C216.265 392.26 236.362 387.939 254.889 379.572C273.415 371.205 289.944 358.984 303.375 343.725L489.105 124.652L503.197 150.487L546.197 6.54483L543.249 0.673218Z" fill="#121214"/>
<path d="M196.075 392.872H195.987L16.6158 392.784C16.4512 392.781 16.2942 392.714 16.1777 392.598C16.0612 392.481 15.9944 392.324 15.9912 392.16V342.188C15.9966 342.021 16.0633 341.861 16.1786 341.739C16.2973 341.628 16.4534 341.565 16.6158 341.564L182.383 342.176H182.882C198.885 342.19 214.702 338.756 229.258 332.108C243.814 325.459 256.766 315.752 267.234 303.648C337.818 222.108 455.237 86.5237 462.783 78.3284L450.29 55.4666C450.212 55.3251 450.192 55.1589 450.234 55.0028C450.276 54.8467 450.377 54.7129 450.515 54.6296L542.962 0.123631C543.036 0.0798105 543.119 0.0516706 543.205 0.040931C543.291 0.0301913 543.378 0.0370759 543.461 0.0611658C543.543 0.0854428 543.619 0.126988 543.684 0.183011C543.749 0.239034 543.8 0.308239 543.836 0.385978L546.772 6.25759C546.803 6.3308 546.818 6.40936 546.818 6.4887C546.818 6.56805 546.803 6.6466 546.772 6.71982L503.797 150.662C503.763 150.782 503.693 150.889 503.597 150.969C503.501 151.049 503.384 151.099 503.26 151.111C503.137 151.122 503.014 151.097 502.906 151.039C502.797 150.982 502.707 150.894 502.647 150.787L488.993 125.801L303.837 344.125C290.364 359.433 273.786 371.697 255.205 380.102C236.625 388.507 216.468 392.86 196.075 392.872ZM17.2405 391.535L195.987 391.622H196.075C216.296 391.618 236.284 387.307 254.71 378.978C273.135 370.648 289.576 358.49 302.938 343.313L488.618 124.252C488.686 124.175 488.772 124.115 488.867 124.076C488.962 124.037 489.065 124.02 489.168 124.027C489.267 124.039 489.362 124.075 489.445 124.132C489.527 124.188 489.595 124.264 489.643 124.352L503.022 148.875L545.498 6.60738L542.999 1.54781L451.702 55.4167L464.095 78.141C464.16 78.2682 464.181 78.4138 464.154 78.5543C464.127 78.6948 464.053 78.8221 463.945 78.9156C462.358 80.3772 391 162.617 268.183 304.485C257.598 316.724 244.502 326.54 229.785 333.266C215.068 339.992 199.076 343.469 182.895 343.463H182.395L17.2405 342.851V391.535Z" fill="#121214"/>
<path d="M447.917 49.3076L460.61 72.5317C458.886 73.9809 328.186 224.944 264.773 298.176C254.185 310.4 241.079 320.19 226.354 326.875C211.628 333.559 195.631 336.981 179.46 336.904L16.6162 336.304V386.275L193.052 386.375C213.381 386.386 233.478 382.062 252.004 373.693C270.531 365.324 287.06 353.102 300.49 337.841L486.157 118.755L500.262 144.59L543.249 0.673218L447.917 49.3076Z" fill="#F9F2F9"/>
<path d="M193.126 387H193.051L16.6158 386.9C16.4502 386.9 16.2913 386.834 16.1742 386.717C16.057 386.6 15.9912 386.441 15.9912 386.275V336.304C15.9942 336.136 16.0612 335.975 16.1786 335.854C16.311 335.758 16.4659 335.698 16.6283 335.68L179.459 336.279H179.959C195.96 336.287 211.774 332.848 226.327 326.198C240.881 319.548 253.831 309.841 264.298 297.739C334.869 216.199 452.302 80.6769 459.847 72.4566L447.354 49.6073C447.292 49.4508 447.292 49.2766 447.354 49.1201C447.379 49.0415 447.419 48.9688 447.473 48.9065C447.527 48.8442 447.593 48.7936 447.667 48.7578L542.974 0.07347C543.081 0.0145816 543.203 -0.00983468 543.323 0.0035918C543.444 0.0170183 543.558 0.0676246 543.649 0.148426C543.744 0.223764 543.814 0.326197 543.85 0.442186C543.885 0.558175 543.885 0.682261 543.849 0.798051L500.861 144.79C500.822 144.908 500.752 145.012 500.657 145.092C500.562 145.171 500.446 145.222 500.324 145.24C500.201 145.25 500.078 145.225 499.97 145.168C499.861 145.11 499.771 145.022 499.712 144.915L486.045 119.929L300.952 338.253C287.471 353.569 270.883 365.838 252.291 374.243C233.699 382.648 213.53 386.997 193.126 387ZM17.2405 385.651L193.051 385.751H193.126C213.354 385.74 233.348 381.421 251.776 373.08C270.204 364.739 286.645 352.569 300.002 337.379L485.682 118.368C485.753 118.294 485.839 118.237 485.934 118.201C486.029 118.164 486.13 118.148 486.232 118.155C486.332 118.166 486.427 118.202 486.51 118.258C486.593 118.315 486.66 118.391 486.707 118.48L500.086 143.003L542.237 1.89741L448.754 49.5699L461.134 72.2568C461.201 72.3858 461.222 72.5335 461.195 72.6761C461.168 72.8188 461.093 72.9482 460.984 73.0438C458.748 75.1176 323.351 231.477 265.247 298.651C254.664 310.892 241.568 320.709 226.851 327.435C212.134 334.161 196.14 337.638 179.959 337.628H179.459L17.2405 337.029V385.651Z" fill="#121214"/>
</svg>
