<svg width="154" height="24" viewBox="0 0 154 24" fill="none" xmlns="http://www.w3.org/2000/svg">
<g clip-path="url(#clip0_153_2452)">
<path d="M45.0039 18.9733C43.7047 18.6222 42.6448 18.1728 41.8286 17.6227L43.7785 13.9219C44.6617 14.4899 45.6031 14.9192 46.6027 15.2099C47.6022 15.5006 48.6017 15.6482 49.6035 15.6482C50.6053 15.6482 51.2918 15.5096 51.815 15.2368C52.3405 14.9617 52.6021 14.5838 52.6021 14.0986C52.6021 13.6827 52.3651 13.3562 51.8888 13.1237C51.4148 12.8911 50.6768 12.6407 49.6751 12.3746C48.5414 12.0749 47.6 11.7708 46.8509 11.4622C46.1018 11.1537 45.4556 10.6841 44.9122 10.049C44.3711 9.41622 44.1005 8.58215 44.1005 7.54908C44.1005 6.2991 44.4426 5.20342 45.1246 4.26202C45.8089 3.32062 46.7838 2.59166 48.0494 2.07512C49.3151 1.55858 50.7998 1.29919 52.4993 1.29919C53.7492 1.29919 54.9165 1.42889 55.9987 1.68604C57.081 1.94543 58.0157 2.31438 58.7983 2.79961L56.9983 6.47575C56.314 6.04195 55.5605 5.71324 54.7353 5.4874C53.9102 5.26155 53.065 5.14975 52.1974 5.14975C51.2135 5.14975 50.442 5.30851 49.8853 5.6238C49.3262 5.94133 49.0467 6.3483 49.0467 6.84918C49.0467 7.28298 49.2882 7.61616 49.7712 7.84871C50.2542 8.08127 51.0055 8.33171 52.0207 8.59781C53.1544 8.88179 54.0914 9.17248 54.8337 9.47212C55.5761 9.77176 56.2134 10.2302 56.7456 10.8473C57.2778 11.4645 57.5461 12.2717 57.5461 13.2712C57.5461 14.5056 57.1995 15.5923 56.5086 16.5337C55.8176 17.4751 54.8337 18.2041 53.5592 18.7206C52.2846 19.2371 50.8043 19.4965 49.1205 19.4965C47.6715 19.4965 46.2963 19.3221 44.9949 18.971L45.0039 18.9733Z" fill="#681993"/>
<path d="M75.504 5.59692L72.8028 19.1477H68.3016L68.5766 17.7479C67.993 18.2979 67.34 18.7071 66.6133 18.9732C65.8888 19.2393 65.142 19.3735 64.375 19.3735C62.8925 19.3735 61.7118 18.9732 60.8375 18.1727C59.9632 17.3722 59.5249 16.2318 59.5249 14.747C59.5249 14.1969 59.583 13.6379 59.6993 13.0722L61.1997 5.59692H65.9492L64.5494 12.6227C64.4823 12.9403 64.4488 13.2466 64.4488 13.5485C64.4488 14.7314 65.057 15.3239 66.2734 15.3239C67.0896 15.3239 67.7649 15.069 68.2993 14.5614C68.8315 14.0538 69.2005 13.298 69.3995 12.2985L70.7501 5.59916H75.4996L75.504 5.59692Z" fill="#681993"/>
<path d="M89.5176 6.11129C90.3919 6.60323 91.0962 7.31654 91.6307 8.24899C92.1629 9.18144 92.4312 10.2749 92.4312 11.5249C92.4312 13.0074 92.1025 14.3468 91.4428 15.5387C90.7832 16.7305 89.8932 17.6674 88.7685 18.3517C87.6437 19.0359 86.4139 19.3758 85.0811 19.3758C83.1134 19.3758 81.7315 18.7586 80.931 17.5265L79.6318 24.0023H74.8823L78.5585 5.60146H83.0597L82.7847 6.87603C83.867 5.8765 85.1773 5.37561 86.709 5.37561C87.7086 5.37561 88.6477 5.62158 89.522 6.11352L89.5176 6.11129ZM86.7291 14.4989C87.3284 13.799 87.6303 12.8911 87.6303 11.7731C87.6303 10.9726 87.4 10.3397 86.9416 9.8724C86.4832 9.40505 85.8548 9.1725 85.0543 9.1725C84.104 9.1725 83.3303 9.52357 82.7288 10.2235C82.1295 10.9234 81.8299 11.8402 81.8299 12.9739C81.8299 13.7744 82.0579 14.4027 82.5163 14.8611C82.9747 15.3195 83.6031 15.5476 84.4036 15.5476C85.354 15.5476 86.1276 15.1965 86.7291 14.4966V14.4989Z" fill="#681993"/>
<path d="M108.281 13.5486H98.3303C98.4957 15.0155 99.5221 15.7489 101.405 15.7489C102.004 15.7489 102.588 15.6572 103.156 15.4739C103.722 15.2905 104.231 15.0155 104.681 14.6487L106.655 17.625C105.072 18.7922 103.147 19.3758 100.879 19.3758C99.4461 19.3758 98.1827 19.1232 97.0915 18.6133C96.0003 18.1057 95.1573 17.3879 94.5669 16.4622C93.9744 15.5365 93.6792 14.4497 93.6792 13.1997C93.6792 11.7172 94.0258 10.3778 94.7167 9.18595C95.4077 7.99412 96.3759 7.06166 97.617 6.38636C98.858 5.71106 100.28 5.37341 101.879 5.37341C103.23 5.37341 104.408 5.61938 105.416 6.11132C106.425 6.60326 107.201 7.29869 107.742 8.19984C108.283 9.09875 108.554 10.1408 108.554 11.3259C108.554 11.9766 108.462 12.7167 108.279 13.5508L108.281 13.5486ZM99.7301 9.36037C99.2135 9.76957 98.8379 10.3308 98.6053 11.0486H104.18C104.196 10.3331 103.972 9.76957 103.505 9.36037C103.037 8.95116 102.42 8.74768 101.655 8.74768C100.891 8.74768 100.247 8.95116 99.7301 9.36037Z" fill="#681993"/>
<path d="M120.982 5.37341L120.157 9.64883C119.741 9.59963 119.381 9.57503 119.081 9.57503C118.015 9.57503 117.161 9.82995 116.519 10.3375C115.877 10.8451 115.448 11.6501 115.231 12.7503L113.932 19.15H109.182L111.883 5.59926H116.382L116.083 7.09968C117.216 5.95033 118.849 5.37565 120.984 5.37565L120.982 5.37341Z" fill="#681993"/>
<path d="M123.907 1.64799H128.857L126.156 15.2233H134.506L133.705 19.1477H120.405L123.904 1.64575L123.907 1.64799Z" fill="#681993"/>
<path d="M151.809 3.12389C153.041 4.10778 153.658 5.48968 153.658 7.27409C153.658 8.74096 153.305 10.0245 152.596 11.1246C151.887 12.2248 150.879 13.0745 149.57 13.6738C148.262 14.2731 146.742 14.5749 145.007 14.5749H141.507L140.606 19.15H135.655L139.155 1.64807H146.554C148.821 1.64807 150.57 2.14001 151.804 3.12389H151.809ZM147.77 9.89926C148.363 9.38272 148.658 8.64928 148.658 7.69894C148.658 6.98339 148.421 6.44449 147.945 6.08672C147.471 5.72894 146.791 5.55006 145.908 5.55006H143.307L142.283 10.6752H145.232C146.333 10.6752 147.178 10.418 147.77 9.89926Z" fill="#681993"/>
<path d="M6.48691 15.1339L13.0118 21.6588L11.29 23.3784C11.0508 23.6176 10.7355 23.7473 10.3978 23.7473C10.0602 23.7473 9.7449 23.6176 9.50564 23.3784L0.368956 14.2417C0.13193 14.0024 0 13.6871 0 13.3495C0 13.0118 0.13193 12.6965 0.368956 12.4595L12.4595 0.368956C12.7055 0.122985 13.0275 0 13.3517 0C13.676 0 13.9979 0.122985 14.2417 0.368956L15.9635 2.09075L6.48691 11.5673C6.01062 12.0436 5.749 12.6764 5.749 13.3495C5.749 14.0225 6.01062 14.6576 6.48691 15.1339Z" fill="#681993"/>
<path d="M20.0198 21.6588L18.2981 23.3784C18.061 23.6176 17.7435 23.7473 17.4059 23.7473C17.0682 23.7473 16.7529 23.6176 16.5159 23.3784L14.3491 21.2116L13.9041 20.7666L7.37921 14.2417C7.13995 14.0024 7.01025 13.6871 7.01025 13.3495C7.01025 13.0118 7.13995 12.6965 7.37921 12.4595L16.8558 2.98295L17.3008 2.53573L17.748 2.09075L19.4675 0.368956C19.7135 0.122985 20.0377 0 20.3597 0C20.6817 0 21.006 0.122985 21.2519 0.368956L22.9737 2.09075L20.3597 4.70251L19.9148 5.14973L19.4675 5.59471L13.4949 11.5673C13.0186 12.0436 12.757 12.6764 12.757 13.3495C12.757 14.0225 13.0186 14.6576 13.4949 15.1339L20.0198 21.6588Z" fill="#681993"/>
<path d="M37.3964 11.29L25.3059 23.3784C25.0688 23.6176 24.7513 23.7473 24.4159 23.7473C24.0805 23.7473 23.763 23.6176 23.5237 23.3784L17.853 17.7076L17.408 17.2626L14.387 14.2417C13.8951 13.7497 13.8951 12.9492 14.387 12.4595L20.3596 6.48691L20.8046 6.03969L21.2518 5.59471L23.8636 2.98071L24.3086 2.53573L24.7558 2.09075L26.4753 0.368956C26.7213 0.122985 27.0456 0 27.3675 0C27.6895 0 28.0138 0.122985 28.2597 0.368956L37.3964 9.50564C37.8884 9.99758 37.8884 10.7981 37.3964 11.29Z" fill="#681993"/>
</g>
<defs>
<clipPath id="clip0_153_2452">
<rect width="153.658" height="24" fill="white"/>
</clipPath>
</defs>
</svg>
