<svg width="276" height="546" viewBox="0 0 276 546" fill="none" xmlns="http://www.w3.org/2000/svg">
<path d="M537.517 259.581L259.53 537.517C254.08 543.018 246.78 546 239.068 546C231.356 546 224.055 543.018 218.554 537.517L88.1723 407.135L77.9412 396.904L8.48305 327.446C-2.82768 316.135 -2.82768 297.729 8.48305 286.47L145.806 149.147L156.037 138.865L166.319 128.634L226.369 68.5328L236.6 58.3017L246.882 48.0706L286.419 8.48305C292.074 2.82768 299.529 0 306.932 0C314.336 0 321.79 2.82768 327.446 8.48305L537.517 218.554C548.828 229.865 548.828 248.271 537.517 259.581Z" fill="#681993"/>
</svg>
